HIERARCHY
ROOT Hips
{
	OFFSET	0.00	0.00	0.00
	CHANNELS 6 Xposition Yposition Zposition Zrotation Xrotation Yrotation
	JOINT LeftUpLeg
	{
		OFFSET	 0.126116	-0.014019	-0.065224
		CHANNELS 3 Zrotation Xrotation Yrotation
		JOINT LeftLeg
		{
			OFFSET	 0.000000	 0.000000	 0.569914
			CHANNELS 3 Zrotation Xrotation Yrotation
			JOINT LeftFoot
			{
				OFFSET	 0.000000	 0.000000	 0.544423
				CHANNELS 3 Zrotation Xrotation Yrotation
				JOINT LeftToeBase
				{
					OFFSET	 0.000000	 0.000000	 0.207117
					CHANNELS 3 Zrotation Xrotation Yrotation
					End Site
					{
						OFFSET	 0.000000	 0.000000	 0.207117
					}
				}
			}
		}
	}
	JOINT RightUpLeg
	{
		OFFSET	-0.124023	-0.008373	-0.065224
		CHANNELS 3 Zrotation Xrotation Yrotation
		JOINT RightLeg
		{
			OFFSET	 0.000000	 0.000000	 0.570047
			CHANNELS 3 Zrotation Xrotation Yrotation
			JOINT RightFoot
			{
				OFFSET	 0.000000	 0.000000	 0.544354
				CHANNELS 3 Zrotation Xrotation Yrotation
				JOINT RightToeBase
				{
					OFFSET	 0.000000	 0.000000	 0.207540
					CHANNELS 3 Zrotation Xrotation Yrotation
					End Site
					{
						OFFSET	 0.000000	 0.000000	 0.207540
					}
				}
			}
		}
	}
	JOINT Spine
	{
		OFFSET	 0.000184	-0.007763	 0.117403
		CHANNELS 3 Zrotation Xrotation Yrotation
		JOINT Spine1
		{
			OFFSET	 0.000000	 0.000000	 0.137269
			CHANNELS 3 Zrotation Xrotation Yrotation
			JOINT Spine2
			{
				OFFSET	 0.000000	 0.000000	 0.156879
				CHANNELS 3 Zrotation Xrotation Yrotation
				JOINT LeftShoulder
				{
					OFFSET	 0.080501	-0.002496	 0.160144
					CHANNELS 3 Zrotation Xrotation Yrotation
					JOINT LeftArm
					{
						OFFSET	 0.000000	 0.000000	 0.164363
						CHANNELS 3 Zrotation Xrotation Yrotation
						JOINT LeftForeArm
						{
							OFFSET	 0.000000	 0.000000	 0.364576
							CHANNELS 3 Zrotation Xrotation Yrotation
							JOINT LeftHand
							{
								OFFSET	 0.000000	 0.000000	 0.360812
								CHANNELS 3 Zrotation Xrotation Yrotation
								JOINT LeftHandIndex1
								{
									OFFSET	 0.000000	 0.000000	 0.086006
									CHANNELS 3 Zrotation Xrotation Yrotation
									JOINT LeftHandIndex2
									{
										OFFSET	 0.000000	 0.000000	 0.047237
										CHANNELS 3 Zrotation Xrotation Yrotation
										JOINT LeftHandIndex3
										{
											OFFSET	-0.004284	-0.000551	 0.038165
											CHANNELS 3 Zrotation Xrotation Yrotation
											End Site
											{
												OFFSET	-0.004284	-0.000551	 0.038165
											}
										}
									}
								}
							}
						}
					}
				}
				JOINT Neck
				{
					OFFSET	 0.000000	 0.000000	 0.176489
					CHANNELS 3 Zrotation Xrotation Yrotation
					JOINT Head
					{
						OFFSET	 0.000000	-0.001747	 0.077940
						CHANNELS 3 Zrotation Xrotation Yrotation
						End Site
						{
							OFFSET	 0.000000	-0.001747	 0.077940
						}
					}
				}
				JOINT RightShoulder
				{
					OFFSET	-0.080363	 0.000306	 0.159706
					CHANNELS 3 Zrotation Xrotation Yrotation
					JOINT RightArm
					{
						OFFSET	 0.000000	 0.000000	 0.164196
						CHANNELS 3 Zrotation Xrotation Yrotation
						JOINT RightForeArm
						{
							OFFSET	 0.000000	 0.000000	 0.365611
							CHANNELS 3 Zrotation Xrotation Yrotation
							JOINT RightHand
							{
								OFFSET	 0.000000	 0.000000	 0.360648
								CHANNELS 3 Zrotation Xrotation Yrotation
								JOINT RightHandIndex1
								{
									OFFSET	 0.000000	 0.000000	 0.069977
									CHANNELS 3 Zrotation Xrotation Yrotation
									JOINT RightHandIndex2
									{
										OFFSET	 0.000000	 0.000000	 0.052305
										CHANNELS 3 Zrotation Xrotation Yrotation
										JOINT RightHandIndex3
										{
											OFFSET	 0.009002	-0.000782	 0.042196
											CHANNELS 3 Zrotation Xrotation Yrotation
											End Site
											{
												OFFSET	 0.009002	-0.000782	 0.042196
											}
										}
									}
								}
							}
						}
					}
				}
			}
		}
	}
}
MOTION
Frames:    7
Frame Time: 0.03333334
-0.702304	 0.042272	 1.265102	 168.778500	-5.032729	 1.831188	 3.911510	-1.030941	 175.630800	-1.899711	-31.565500	-1.762075	-61.733150	 78.002030	 52.266350	-2.385833	 28.452760	 0.000004	-29.057140	-0.245507	-167.874000	 9.544391	-24.206830	 4.036413	 28.754790	 77.473900	-30.943810	 2.384659	 28.388700	-0.000001	 11.492270	-3.073868	-15.467530	 6.129446	 10.447190	-4.140629	 9.100326	 1.168312	 8.229311	-91.776150	 78.527380	 180.000000	-16.273320	 45.985500	-24.327510	-32.005910	 17.136070	-53.777900	-38.935390	-36.070580	-22.570350	-4.130354	 21.526190	 0.991307	-5.167926	 0.731697	 3.519349	-1.378229	 35.397820	-2.634230	 14.782710	 5.318801	-3.463023	 8.344842	-13.795020	-3.827799	 89.782090	 78.203830	-180.000000	-59.562950	 3.574845	 74.128590	 11.137070	 0.609573	 144.469200	 3.885443	 8.239163	 15.412090	 5.716295	 19.173350	-3.684826	 5.027458	 0.246833	-9.377971	-2.350882	 35.473990	 5.254307
-0.700078	 0.040981	 1.263561	 168.074300	-5.090765	 2.018862	 3.087046	-1.126373	 176.207600	-1.553578	-31.599510	-1.582009	-60.792900	 78.416080	 50.914810	-2.385833	 28.452760	 0.000004	-29.861780	-1.069690	-167.514600	 9.944101	-24.591540	 4.266986	 27.628710	 77.144520	-30.195360	 2.384659	 28.388700	-0.000001	 13.609070	-4.099629	-15.801130	 7.410726	 12.505880	-4.001378	 9.223271	-1.567025	 8.673728	-91.776120	 78.527350	 180.000000	-24.740060	 41.887450	-24.098960	-30.114560	 19.092490	-60.822560	-40.745120	-36.348870	-23.826580	-4.130354	 21.526190	 0.991307	-5.167926	 0.731697	 3.519349	-1.378229	 35.397820	-2.634230	 15.078150	 5.354050	-4.476418	 8.119672	-15.737240	-4.450355	 89.782100	 78.203870	-180.000000	-59.097730	 0.024227	 76.595680	 12.488930	-0.503403	 142.833900	-3.018661	 6.567421	 14.664290	 5.716295	 19.173350	-3.684826	 5.027458	 0.246833	-9.377971	-2.350882	 35.473990	 5.254307
-0.698189	 0.040484	 1.262567	 167.396300	-4.998892	 1.655552	 2.024089	-0.806613	 176.914300	-1.210243	-31.054180	-1.380037	-59.487960	 78.558880	 49.291360	-2.385833	 28.452760	 0.000004	-30.595280	-2.038398	-167.067600	 10.368990	-25.388390	 4.582841	 27.681270	 77.588810	-30.472800	 2.384659	 28.388700	-0.000001	 16.299580	-5.525480	-15.582340	 9.283972	 14.072360	-4.171775	 9.229197	-3.887397	 8.723840	-91.776200	 78.527350	-180.000000	-31.757630	 39.011200	-28.710500	-28.846230	 20.142590	-65.048830	-42.320800	-36.395100	-24.667150	-4.130354	 21.526190	 0.991307	-5.167926	 0.731697	 3.519349	-1.378229	 35.397820	-2.634230	 15.156400	 5.883577	-5.095130	 8.012722	-18.129140	-4.452626	 89.782040	 78.203850	-179.999900	-56.540870	-4.044259	 79.766690	 14.301040	-2.201401	 140.776400	-10.612860	 5.018332	 11.614950	 5.716295	 19.173350	-3.684826	 5.027458	 0.246833	-9.377971	-2.350882	 35.473990	 5.254307
-0.699780	 0.041504	 1.263075	 166.804300	-5.099529	 1.652699	 0.722241	-0.064172	 177.372100	-0.807550	-30.733190	-1.161117	-62.352040	 79.081300	 51.714690	-2.385833	 28.452760	 0.000004	-31.528920	-1.710882	-166.624500	 10.645680	-24.665670	 4.580058	 26.945110	 77.299270	-30.011560	 2.384659	 28.388700	-0.000001	 18.499710	-6.505094	-15.653140	 11.240660	 15.094250	-6.164125	 9.203918	-5.284565	 9.600418	-91.776150	 78.527400	 180.000000	-35.048740	 38.033370	-35.285180	-28.677430	 20.271980	-65.607200	-43.429500	-36.430520	-25.064590	-4.130354	 21.526190	 0.991307	-5.167926	 0.731697	 3.519349	-1.378229	 35.397820	-2.634230	 14.914760	 5.288489	-5.101716	 7.794935	-18.792080	-4.809474	 89.782040	 78.203870	-180.000000	-54.051610	-7.578514	 82.460690	 15.816590	-3.968133	 137.967100	-17.159450	 4.750966	 8.877552	 5.716295	 19.173350	-3.684826	 5.027458	 0.246833	-9.377971	-2.350882	 35.473990	 5.254307
-0.703317	 0.043285	 1.264432	 166.196800	-5.610411	 1.486380	-0.153657	 0.771036	 178.066800	-0.514088	-30.470700	-1.003191	-62.073210	 79.144070	 51.208920	-2.385833	 28.452760	 0.000004	-32.539010	-1.735256	-165.938400	 11.044900	-24.279150	 4.682283	 25.626250	 77.191410	-29.012090	 2.384659	 28.388700	-0.000001	 21.530360	-7.258373	-15.692710	 13.898370	 15.391920	-8.838301	 8.825597	-6.559788	 10.654340	-91.776220	 78.527420	-180.000000	-34.858650	 36.810300	-43.960220	-29.160860	 19.842940	-64.011030	-43.311450	-36.024650	-24.255290	-4.130354	 21.526190	 0.991307	-5.167926	 0.731697	 3.519349	-1.378229	 35.397820	-2.634230	 14.237540	 5.275429	-4.698656	 7.185990	-20.670010	-6.232682	 89.782130	 78.203890	 180.000000	-48.405700	-10.120960	 87.326890	 16.983450	-6.178981	 132.864900	-22.761120	 5.880817	 3.848997	 5.716295	 19.173350	-3.684826	 5.027458	 0.246833	-9.377971	-2.350882	 35.473990	 5.254307
-0.704340	 0.045827	 1.265272	 165.929400	-5.240098	 1.884773	-1.390836	 0.596193	 178.093500	-0.179970	-30.389270	-0.831604	-61.439360	 79.439640	 50.370800	-2.385833	 28.452760	 0.000004	-33.485580	-2.168057	-166.001100	 11.491710	-24.534650	 4.920141	 27.626200	 77.400750	-31.231610	 2.384659	 28.388700	-0.000001	 23.784360	-9.423240	-15.758810	 16.187280	 15.839330	-10.140320	 8.341690	-7.375417	 10.864060	-91.776150	 78.527420	 180.000000	-32.056030	 35.722400	-52.396580	-29.601910	 19.168660	-62.181580	-42.291190	-35.481600	-22.734090	-4.130354	 21.526190	 0.991307	-5.167926	 0.731697	 3.519349	-1.378229	 35.397820	-2.634230	 13.490440	 4.224368	-4.301716	 6.440977	-20.962410	-8.035321	 89.782140	 78.203920	 180.000000	-41.428100	-8.848308	 92.986990	 16.995830	-7.897230	 126.297600	-24.088950	 8.649197	 0.163719	 5.716295	 19.173350	-3.684826	 5.027458	 0.246833	-9.377971	-2.350882	 35.473990	 5.254307
-0.705657	 0.050943	 1.265708	 165.897100	-4.727401	 2.471900	-2.765213	-0.018736	 178.254100	 0.284140	-30.628590	-0.600974	-61.219160	 79.883300	 49.912080	-2.385833	 28.452760	 0.000004	-34.422050	-2.707994	-165.990900	 11.903850	-24.700040	 5.129593	 28.549470	 77.261660	-32.248200	 2.384659	 28.388700	-0.000001	 25.558710	-11.737480	-15.470370	 18.170500	 15.989850	-11.231140	 7.822275	-7.877232	 10.870120	-91.776200	 78.527400	-180.000000	-28.929200	 34.433910	-59.398170	-30.056550	 18.342310	-60.049410	-40.957650	-34.858600	-20.998140	-4.130354	 21.526190	 0.991307	-5.167926	 0.731697	 3.519349	-1.378229	 35.397820	-2.634230	 12.859380	 3.846192	-4.048250	 5.758720	-21.717920	-9.636693	 89.782080	 78.203830	-180.000000	-34.878140	-4.549484	 97.008860	 16.725670	-9.522531	 120.367500	-23.743840	 13.287020	-1.491693	 5.716295	 19.173350	-3.684826	 5.027458	 0.246833	-9.377971	-2.350882	 35.473990	 5.254307
